<?xml version="1.0" encoding="iso-8859-1"?>
<!-- Uploaded to: SVG Repo, www.svgrepo.com, Generator: SVG Repo Mixer Tools -->
<svg version="1.1" id="Layer_1" xmlns="http://www.w3.org/2000/svg" xmlns:xlink="http://www.w3.org/1999/xlink" 
	 viewBox="0 0 512.001 512.001" xml:space="preserve">
<rect x="334.979" y="83.064" style="fill:#FEDC3D;" width="54.468" height="54.468"/>
<rect x="68.085" y="83.064" style="fill:#FFF1B1;" width="288.681" height="54.468"/>
<path style="fill:#4D4D4D;" d="M389.448,8.169h-32.681v85.787h32.681c8.987,0,16.34-7.353,16.34-16.34V24.51
	C405.788,15.522,398.435,8.169,389.448,8.169z"/>
<path style="fill:#737373;" d="M373.107,24.51v53.106c0,8.987-7.353,16.34-16.34,16.34H68.085c-8.987,0-16.34-7.353-16.34-16.34
	V24.51c0-8.987,7.353-16.34,16.34-16.34h288.681C365.754,8.169,373.107,15.522,373.107,24.51z"/>
<path style="fill:#4D4D4D;" d="M229.311,49.021H84.426c-4.512,0-8.17-3.658-8.17-8.17s3.658-8.17,8.17-8.17h144.885
	c4.512,0,8.17,3.658,8.17,8.17S233.823,49.021,229.311,49.021z"/>
<rect x="334.979" y="201.532" style="fill:#FEDC3D;" width="54.468" height="54.468"/>
<rect x="68.085" y="201.532" style="fill:#FFF1B1;" width="288.681" height="54.468"/>
<path style="fill:#4D4D4D;" d="M389.448,126.637h-32.681v85.787h32.681c8.987,0,16.34-7.353,16.34-16.34v-53.106
	C405.788,133.991,398.435,126.637,389.448,126.637z"/>
<path style="fill:#737373;" d="M373.107,142.978v53.106c0,8.987-7.353,16.34-16.34,16.34H68.085c-8.987,0-16.34-7.353-16.34-16.34
	v-53.106c0-8.987,7.353-16.34,16.34-16.34h288.681C365.754,126.637,373.107,133.991,373.107,142.978z"/>
<path style="fill:#4D4D4D;" d="M229.311,167.49H84.426c-4.512,0-8.17-3.658-8.17-8.17s3.658-8.17,8.17-8.17h144.885
	c4.512,0,8.17,3.658,8.17,8.17S233.823,167.49,229.311,167.49z"/>
<rect x="334.979" y="320.001" style="fill:#FEDC3D;" width="54.468" height="54.468"/>
<rect x="68.085" y="320.001" style="fill:#FFF1B1;" width="288.681" height="54.468"/>
<path style="fill:#4D4D4D;" d="M389.448,245.106h-32.681v85.787h32.681c8.987,0,16.34-7.353,16.34-16.34v-53.106
	C405.788,252.459,398.435,245.106,389.448,245.106z"/>
<path style="fill:#737373;" d="M373.107,261.446v53.106c0,8.987-7.353,16.34-16.34,16.34H68.085c-8.987,0-16.34-7.353-16.34-16.34
	v-53.106c0-8.987,7.353-16.34,16.34-16.34h288.681C365.754,245.106,373.107,252.459,373.107,261.446z"/>
<g>
	<path style="fill:#4D4D4D;" d="M229.311,285.958H84.426c-4.512,0-8.17-3.658-8.17-8.17s3.658-8.17,8.17-8.17h144.885
		c4.512,0,8.17,3.658,8.17,8.17S233.823,285.958,229.311,285.958z"/>
	<path style="fill:#4D4D4D;" d="M389.448,363.574h-32.681v85.787h32.681c8.987,0,16.34-7.353,16.34-16.34v-53.107
		C405.788,370.927,398.435,363.574,389.448,363.574z"/>
</g>
<path style="fill:#737373;" d="M373.107,379.915v53.107c0,8.987-7.353,16.34-16.34,16.34H68.085c-8.987,0-16.34-7.353-16.34-16.34
	v-53.107c0-8.987,7.353-16.34,16.34-16.34h288.681C365.754,363.574,373.107,370.927,373.107,379.915z"/>
<path style="fill:#4D4D4D;" d="M209.703,404.425H84.426c-4.512,0-8.17-3.658-8.17-8.17s3.658-8.17,8.17-8.17h125.277
	c4.512,0,8.17,3.658,8.17,8.17S214.215,404.425,209.703,404.425z"/>
<path style="fill:#ABECEC;" d="M351.32,285.957v196.086l54.469,7.21c32.56-18.835,54.467-54.038,54.467-94.36
	C460.256,334.728,411.485,285.957,351.32,285.957z"/>
<path style="fill:#D5F6F5;" d="M351.32,285.957c42.115,0,76.255,48.771,76.255,108.936c0,29.679-8.307,56.584-21.781,76.232
	l-108.944,18.128c-32.559-18.836-54.466-54.039-54.466-94.36C242.383,334.728,291.154,285.957,351.32,285.957z"/>
<path style="fill:#FEDC3D;" d="M349.443,503.806c0.625,0.011,1.25,0.024,1.877,0.024c19.843,0,38.446-5.307,54.469-14.577
	l-0.001-71.484l-65.362-10.894L349.443,503.806z"/>
<path style="fill:#FFF1B1;" d="M296.852,417.77l-0.002,71.483c16.023,9.269,34.628,14.577,54.47,14.577v-96.953L296.852,417.77z"/>
<polygon style="fill:#FFC1A6;" points="378.554,368.749 405.788,417.77 373.107,417.77 340.426,357.855 "/>
<polygon style="fill:#FFDBCC;" points="362.214,357.855 373.107,417.77 296.852,417.77 324.086,368.749 "/>
<polygon style="fill:#737373;" points="324.086,368.749 378.554,368.749 351.32,319.727 "/>
<circle cx="261.992" cy="40.851" r="8.17"/>
<circle cx="261.992" cy="159.319" r="8.17"/>
<path d="M225.011,322.723H68.085c-4.506,0-8.17-3.665-8.17-8.17v-53.106c0-4.503,3.662-8.167,8.165-8.17
	c0.016,0,321.357,0,321.357,0c4.519,0.003,8.181,3.667,8.181,8.17v2.729c0,4.512,3.658,8.17,8.17,8.17s8.17-3.658,8.17-8.17v-2.729
	c0-10.652-6.831-19.733-16.34-23.105V219.19c9.509-3.373,16.34-12.454,16.34-23.105v-53.106c0-10.651-6.831-19.733-16.34-23.105
	v-19.15c9.509-3.373,16.34-12.455,16.34-23.105V24.511C413.958,10.996,402.962,0,389.448,0H68.085
	C54.569,0,43.575,10.996,43.575,24.511v53.106c0,10.651,6.831,19.733,16.34,23.105v19.151c-9.509,3.373-16.34,12.455-16.34,23.105
	v53.106c0,10.652,6.831,19.733,16.34,23.105v19.151c-9.509,3.373-16.34,12.454-16.34,23.105v53.106
	c0,10.652,6.831,19.733,16.34,23.105v19.151c-9.509,3.373-16.34,12.454-16.34,23.105v53.107c0,13.516,10.995,24.511,24.511,24.511
	h152.518c4.512,0,8.17-3.658,8.17-8.17s-3.658-8.17-8.17-8.17H68.085c-4.506,0-8.17-3.665-8.17-8.17v-53.107
	c0-4.506,3.665-8.17,8.17-8.17h145.113c4.512,0,8.17-3.658,8.17-8.17s-3.658-8.17-8.17-8.17H76.255v-16.34h148.756
	c4.512,0,8.17-3.658,8.17-8.17S229.524,322.723,225.011,322.723z M381.277,220.596v16.34H76.255v-16.34H381.277z M76.255,118.468
	v-16.34h305.022v16.34H76.255z M59.915,24.511c0-4.505,3.665-8.17,8.17-8.17h321.362c4.506,0,8.17,3.666,8.17,8.17v53.106
	c0,4.505-3.665,8.17-8.17,8.17H68.085c-4.506,0-8.17-3.666-8.17-8.17V24.511z M59.915,142.979c0-4.505,3.665-8.17,8.17-8.17h321.362
	c4.506,0,8.17,3.666,8.17,8.17v53.106c0,4.506-3.665,8.17-8.17,8.17H68.085c-4.506,0-8.17-3.665-8.17-8.17V142.979z"/>
<circle cx="261.992" cy="277.788" r="8.17"/>
<path d="M351.32,277.787c-64.573,0-117.107,52.533-117.107,117.107c0,42.962,23.26,80.589,57.844,100.967
	c0.446,0.324,0.924,0.605,1.431,0.834c17.071,9.736,36.812,15.307,57.831,15.307c64.573,0,117.107-52.534,117.107-117.107
	S415.893,277.787,351.32,277.787z M328.893,376.919h44.853l18.156,32.681h-81.165L328.893,376.919z M337.971,360.578l13.349-24.028
	l13.349,24.028H337.971z M359.49,425.94h38.128l0.001,58.433c-11.584,6.018-24.476,9.852-38.129,10.952V425.94z M305.021,425.94
	h38.128v69.387c-13.653-1.1-26.546-4.935-38.13-10.954L305.021,425.94z M413.958,473.766V417.77c0-1.389-0.354-2.754-1.028-3.967
	l-27.183-48.929c-0.009-0.016-0.017-0.032-0.026-0.048l-27.259-49.067c-1.441-2.594-4.176-4.203-7.142-4.203
	s-5.701,1.609-7.142,4.203l-27.259,49.067c-0.009,0.016-0.017,0.032-0.026,0.048l-27.183,48.929
	c-0.674,1.214-1.028,2.579-1.028,3.967l-0.002,55.994c-23.215-18.476-38.126-46.962-38.126-78.871
	c0-55.563,45.203-100.766,100.766-100.766s100.766,45.203,100.766,100.766C452.086,426.802,437.175,455.29,413.958,473.766z"/>
</svg>